<svg xmlns="http://www.w3.org/2000/svg" width="697.03" height="932.576" viewBox="0 0 697.03 932.576">
  <path id="door-full" d="M826.91,307.252H802.58V275.89l-.29-4.815c-1.547-26.312-6.672-39.218-6.672-39.218C763.114,118.869,529.586,14.818,498.63,1.4A12.6,12.6,0,0,1,496.824.63h0a12.562,12.562,0,0,1-1.806.774c-30.955,13.414-263.9,117.89-296.4,230.878,0,0-5.418,17.026-6.965,43.6h0l.258,28.376v2.58H167.145a18.161,18.161,0,0,0-18.065,16.454V932.131l348.6.015H845.1V345.24l.016-19.734c-.078-1.558.132-3.865-.326-5.583C842.733,312.169,835.67,307.252,826.91,307.252Z" transform="translate(-148.58 -0.071)" fill="#fff" stroke="#fff" stroke-miterlimit="10" stroke-width="1"/>
</svg>
