<?xml version="1.0" standalone="no"?>
<!DOCTYPE svg PUBLIC "-//W3C//DTD SVG 20010904//EN"
 "http://www.w3.org/TR/2001/REC-SVG-20010904/DTD/svg10.dtd">
<svg version="1.0" xmlns="http://www.w3.org/2000/svg"
 width="300.000000pt" height="91.000000pt" viewBox="0 0 300.000000 91.000000"
 preserveAspectRatio="xMidYMid meet">

<g transform="translate(0.000000,91.000000) scale(0.100000,-0.100000)"
fill="#000000" stroke="none">
<path d="M0 460 l0 -450 1495 0 1495 0 0 450 0 450 -1495 0 -1495 0 0 -450z
m860 0 l0 -420 -410 0 -410 0 0 420 0 420 410 0 410 0 0 -420z m423 107 l57
58 0 -128 c0 -70 -3 -127 -7 -127 -4 0 -52 44 -105 97 l-98 98 0 -98 c0 -58
-4 -97 -10 -97 -6 0 -10 49 -10 127 l0 127 58 -57 57 -57 58 57z m917 -17 c0
-13 7 -20 20 -20 11 0 20 -7 20 -15 0 -8 -9 -15 -20 -15 -18 0 -20 -7 -20 -65
0 -37 -4 -65 -10 -65 -6 0 -10 40 -10 100 0 60 4 100 10 100 6 0 10 -9 10 -20z
m-707 -32 c28 -15 46 -38 47 -60 0 -15 -9 -18 -61 -18 -52 0 -60 -2 -57 -17 4
-22 53 -30 74 -12 10 8 18 9 25 2 15 -15 -27 -43 -63 -43 -81 0 -95 125 -18
153 23 8 30 8 53 -5z m225 -1 c21 1 22 -2 22 -82 0 -97 -20 -135 -71 -135 -38
0 -69 16 -69 35 0 18 1 18 36 0 24 -12 32 -12 49 -1 37 24 30 42 -14 38 -71
-7 -114 61 -75 116 20 29 52 43 79 34 11 -3 30 -6 43 -5z m210 1 c21 2 22 -2
22 -67 l0 -69 -50 -7 c-59 -8 -96 10 -106 52 -13 50 45 111 91 96 11 -4 30 -6
43 -5z m471 -11 c36 -29 30 -106 -9 -127 -50 -27 -120 9 -120 60 0 44 10 61
44 76 32 13 60 10 85 -9z m332 -5 c10 -9 20 -27 24 -39 6 -22 4 -23 -59 -23
-36 0 -66 -4 -66 -8 0 -28 71 -45 86 -21 4 8 10 7 18 -1 8 -8 6 -15 -8 -26
-30 -22 -74 -17 -101 11 -34 33 -32 70 5 107 25 24 36 29 58 23 15 -3 34 -14
43 -23z m-641 3 c-3 -5 -18 -10 -34 -10 -44 0 -42 -20 3 -34 47 -14 61 -43 35
-72 -18 -20 -59 -25 -84 -9 -22 14 -3 25 36 21 43 -3 48 25 7 35 -39 9 -53 23
-53 49 0 13 6 26 13 29 21 9 82 2 77 -9z m474 1 c-3 -8 -11 -13 -19 -10 -24
10 -45 -25 -45 -77 0 -27 -4 -49 -10 -49 -6 0 -10 31 -10 73 l0 74 45 1 c35 2
43 -1 39 -12z"/>
<path d="M170 435 l0 -275 70 0 70 0 0 154 0 155 38 -16 c48 -20 156 -20 205
0 l37 16 0 -155 0 -154 70 0 70 0 0 275 0 275 -69 0 c-67 0 -69 0 -74 -29 -14
-68 -94 -119 -167 -105 -40 9 -96 63 -105 103 -7 31 -7 31 -76 31 l-69 0 0
-275z"/>
<path d="M1272 527 l-32 -33 35 -34 35 -34 0 67 c0 37 -1 67 -3 67 -2 0 -17
-15 -35 -33z"/>
<path d="M1432 488 c-21 -21 -13 -28 33 -28 47 0 58 12 26 30 -26 13 -44 13
-59 -2z"/>
<path d="M1626 484 c-24 -24 -20 -61 9 -80 23 -15 27 -15 50 0 46 30 26 96
-29 96 -8 0 -22 -7 -30 -16z"/>
<path d="M1836 484 c-19 -18 -21 -55 -4 -72 15 -15 61 -15 76 0 18 18 15 53
-6 71 -23 21 -46 22 -66 1z"/>
<path d="M2318 489 c-22 -12 -24 -62 -4 -78 46 -38 111 25 71 69 -20 22 -41
25 -67 9z"/>
<path d="M2644 483 c-17 -17 -16 -18 25 -21 50 -4 59 1 41 23 -17 20 -44 19
-66 -2z"/>
</g>
</svg>
